<?xml version="1.0" encoding="utf-8"?>
<!-- Generator: Adobe Illustrator 24.2.1, SVG Export Plug-In . SVG Version: 6.00 Build 0)  -->
<svg version="1.1" id="Livello_1" xmlns="http://www.w3.org/2000/svg" xmlns:xlink="http://www.w3.org/1999/xlink" x="0px" y="0px"
	 viewBox="0 0 50 50" style="enable-background:new 0 0 50 50;" xml:space="preserve">
<g>
	<path d="M30.8,33L3,15.2L20.2,2.4l27.7,15.5L30.8,33z M6.5,15.1l24.1,15.4l13.8-12.2L20.3,4.7L6.5,15.1z"/>
</g>
<g>
	<path d="M30.8,39.5L3,21.7l6.4-4.8l21.2,13.5l10.9-9.6l6.4,3.6L30.8,39.5z M6.5,21.6L30.6,37l13.8-12.2l-2.7-1.5l-11,9.7L9.5,19.4
		L6.5,21.6z"/>
</g>
<g>
	<path d="M30.8,46L3,28.3l6.4-4.8L30.6,37l10.9-9.6l6.4,3.6L30.8,46z M6.5,28.1l24.1,15.4l13.8-12.2l-2.7-1.5l-11,9.7L9.5,25.9
		L6.5,28.1z"/>
</g>
</svg>
